<svg width="246" height="230" viewBox="0 0 246 230" fill="none" xmlns="http://www.w3.org/2000/svg">
<g clip-path="url(#clip0_288_1925)">
<rect x="97" y="37.4468" width="79" height="11" rx="5.5" transform="rotate(-15 97 37.4468)" fill="#E4E6E4"/>
<rect y="20.4468" width="79" height="11" rx="5.5" transform="rotate(-15 0 20.4468)" fill="#E4E6E4"/>
<rect x="9" y="62.4468" width="79" height="11" rx="5.5" transform="rotate(-15 9 62.4468)" fill="#E4E6E4"/>
<rect width="101.078" height="13.3259" rx="6.66295" transform="matrix(-0.969785 0.243963 -0.274443 -0.961603 132.681 86.9648)" fill="#E4E6E4"/>
<rect width="101.078" height="13.3259" rx="6.66295" transform="matrix(-0.969785 0.243963 -0.274443 -0.961603 246 120.788)" fill="#E4E6E4"/>
<rect width="101.078" height="13.3259" rx="6.66295" transform="matrix(-0.969785 0.243963 -0.274443 -0.961603 245.723 56.8142)" fill="#E4E6E4"/>
<rect x="97" y="182.894" width="79" height="11" rx="5.5" transform="rotate(-15 97 182.894)" fill="#E4E6E4"/>
<rect y="165.894" width="79" height="11" rx="5.5" transform="rotate(-15 0 165.894)" fill="#E4E6E4"/>
<rect x="9" y="207.894" width="79" height="11" rx="5.5" transform="rotate(-15 9 207.894)" fill="#E4E6E4"/>
<rect width="101.078" height="13.3259" rx="6.66295" transform="matrix(-0.969785 0.243963 -0.274443 -0.961603 132.681 232.412)" fill="#E4E6E4"/>
<rect width="101.078" height="13.3259" rx="6.66295" transform="matrix(-0.969785 0.243963 -0.274443 -0.961603 245.723 202.261)" fill="#E4E6E4"/>
</g>
<defs>
<clipPath id="clip0_288_1925">
<rect width="246" height="230" fill="white"/>
</clipPath>
</defs>
</svg>
