<svg width="29" height="35" viewBox="0 0 29 35" fill="none" xmlns="http://www.w3.org/2000/svg">
<path d="M17.0194 17.855C17.0194 18.3583 16.6304 18.7557 16.1637 18.7292C15.6969 18.7292 15.3339 18.3053 15.3339 17.802C15.3339 17.2987 15.7228 16.9013 16.1896 16.9278C16.6564 16.9278 17.0454 17.3517 17.0194 17.855ZM26.0956 27.0474C26.0956 26.2262 26.7439 25.5639 27.5478 25.5639C28.3517 25.5639 29 26.2262 29 27.0474C29 27.8686 28.3517 28.5309 27.5478 28.5309C26.7439 28.5309 26.0956 27.8951 26.0956 27.0474ZM3.35327 18.1464C3.32734 18.9941 2.7309 19.6829 1.92701 19.6829C1.12312 19.6829 0.47482 18.9146 0.500752 18.0669C0.526684 17.2192 1.17498 16.5569 1.95294 16.5834C2.75683 16.6099 3.3792 17.2987 3.35327 18.1464ZM15.7747 32.7165C15.7747 33.5377 15.1264 34.2 14.3225 34.2C13.5186 34.2 12.8703 33.5377 12.8703 32.7165C12.8703 31.8953 13.5186 31.233 14.3225 31.233C15.1264 31.233 15.7747 31.8953 15.7747 32.7165ZM14.2966 5.93401C13.1556 5.93401 12.2479 5.00682 12.2479 3.84121C12.2479 2.6756 13.1556 1.74841 14.2966 1.74841C15.4376 1.74841 16.3452 2.6756 16.3452 3.84121C16.3711 4.98032 15.4376 5.93401 14.2966 5.93401ZM14.2966 0C12.222 0 10.5624 1.72192 10.5624 3.81472C10.5624 5.93401 12.2479 7.62943 14.2966 7.62943C16.3711 7.62943 18.0308 5.90752 18.0308 3.81472C18.0567 1.72192 16.3711 0 14.2966 0Z" fill="#ED1C24"/>
</svg>
