<svg width="76" height="72" viewBox="0 0 76 72" fill="none" xmlns="http://www.w3.org/2000/svg">
<path d="M33.9848 53.4644C40.5483 55.5859 42.2046 65.9214 42.2046 65.9214C42.2046 65.9214 34.7067 73.3302 28.1432 71.2087C25.1574 70.24 23.4946 67.0448 24.4884 64.0666C24.9136 62.7379 25.8097 61.7178 26.8822 61.0367C26.4004 59.8724 26.3579 58.4794 26.7831 57.1507C27.7518 54.1241 30.999 52.4957 33.9848 53.4644ZM51.2842 42.0007C51.1425 40.5363 51.615 39.06 52.5584 37.8923C53.067 37.3199 53.6261 36.8444 54.2607 36.5141C54.8954 36.1839 55.6056 35.9988 56.3662 35.9106C57.667 35.7874 58.9741 36.1531 60.089 36.8649C60.7835 37.3649 61.7897 37.2719 62.396 36.6487C63.3425 35.7255 64.5882 35.1388 65.889 35.0155C67.3614 34.8645 68.8417 35.3247 70.0086 36.2555C71.1754 37.1864 71.8809 38.5419 71.9989 40.0801C72.5734 46.5488 65.2268 52.3408 62.7921 54.1C60.0977 52.8567 51.8587 48.4694 51.2842 42.0007ZM47.7252 42.3147C48.5893 52.2011 61.7306 57.5441 62.2991 57.802C62.7684 57.9884 63.3085 57.9534 63.7967 57.6994C63.8455 57.674 63.8943 57.6486 63.9432 57.6232C64.455 57.2953 76.4709 49.6271 75.6067 39.7407C75.4037 37.3239 74.2447 35.0969 72.3567 33.4954C70.4938 31.9424 68.0513 31.1832 65.6214 31.4018C63.9521 31.5322 62.3632 32.1745 60.9994 33.1304C59.516 32.4258 57.7916 32.0926 56.1475 32.2715C51.0925 32.8103 47.2923 37.3104 47.7252 42.3147ZM3.85424 22.5091C3.7756 20.2121 4.58358 18.069 6.13481 16.4004C6.81357 15.678 7.61673 15.0754 8.49547 14.6181C9.37422 14.1608 10.3285 13.8488 11.3096 13.7074C12.1679 13.5683 12.7978 12.8714 12.8609 12.0387C12.9586 10.0806 13.7697 8.18196 15.102 6.6888C18.3257 3.22695 23.7288 2.99917 27.1601 6.13544C34.3455 12.6706 31.7954 26.4872 30.9086 30.1479C27.2866 31.2946 13.6961 34.9833 6.51067 28.4481C4.94226 26.8649 3.98171 24.7807 3.85424 22.5091ZM33.11 33.186C33.1588 33.1605 33.2565 33.1097 33.3053 33.0843C33.7447 32.8557 34.0833 32.4334 34.225 31.9905C34.4361 31.2039 39.5533 12.5445 29.6326 3.4952C24.6848 -1.00524 16.9983 -0.635069 12.4659 4.24613C10.8911 5.98855 9.83746 8.13648 9.42477 10.4431C7.17124 11.0006 5.09877 12.2637 3.49873 13.9577C-1.05732 18.9127 -0.737968 26.5601 4.1846 31.0121C14.0565 40.0868 32.3762 33.4448 33.11 33.186Z" fill="#ffffff"/>
</svg>
