<svg width="48" height="49" viewBox="0 0 48 49" fill="none" xmlns="http://www.w3.org/2000/svg">
<path d="M23.9128 13.6906C25.3416 10.7422 28.4539 8.84331 31.5592 8.20253C34.5513 7.68802 37.211 8.54553 39.5382 10.6036C41.3667 12.3186 42.3641 14.3767 42.5303 16.9492C42.6965 20.5508 41.5329 23.6379 39.5382 26.5534C37.7097 29.2975 35.3825 31.527 32.8891 33.5851C30.2294 35.9861 27.4036 38.0442 24.5777 40.2737C24.2452 40.6167 23.9128 40.6167 23.5803 40.2737C20.0895 37.3582 16.4325 34.6141 13.108 31.527C10.4483 29.126 8.12115 26.3819 6.6251 22.9518C5.46151 20.3793 5.12905 17.8067 5.79396 14.8912C6.79133 11.2896 9.94965 8.37402 13.6067 7.8595C17.9751 7.43025 22.2833 9.48774 23.9128 13.6906Z" fill="#ED1C24"/>
</svg>
