<svg width="153" height="100" viewBox="0 0 153 100" fill="none" xmlns="http://www.w3.org/2000/svg">
<g clip-path="url(#clip0_602_661)">
<path d="M10.1265 37.3618H17.1497C17.1906 41.9911 17.1906 46.5794 17.2314 51.2086H27.9295C28.3379 43.3839 28.7462 35.5593 29.1954 27.7346H36.5452C34.9119 45.801 33.2786 63.8674 31.6453 81.9337H26.2554C26.6637 74.1091 27.1129 66.2844 27.5212 58.5007H17.2722C17.3131 63.13 17.3131 67.7182 17.3539 72.3475H11.5965C11.1065 60.6719 10.6165 49.0374 10.1265 37.3618ZM19.273 60.8358H25.4388C25.1529 67.8821 24.8263 74.9284 24.5404 81.9337H4.89992C3.26661 63.8674 1.63331 45.801 0 27.7346H26.8271C26.5004 34.7809 26.2146 41.8272 25.9287 48.8325H19.3139C19.3547 44.2033 19.3547 39.615 19.3955 34.9857H7.75821C8.45236 48.1771 9.18735 61.4093 9.88151 74.6416H19.1914C19.1914 70.0533 19.2322 65.4241 19.273 60.8358Z" fill="#ED1C24"/>
<path d="M34.0547 81.9337L38.9138 27.7346H153L148.1 81.9337H34.0547Z" fill="white"/>
<path d="M61.2082 49.0373L58.8807 46.6612C58.2274 47.2757 57.5741 47.7264 56.9208 48.0951C56.2674 48.4638 55.4508 48.6276 54.5116 48.6276C53.7766 48.6276 53.1233 48.5047 52.5517 48.218C51.9392 47.9312 51.4492 47.5625 51.0409 47.0709C50.6325 46.5793 50.3059 46.0467 50.0609 45.3913C49.8159 44.7358 49.6934 44.0803 49.6934 43.3429V43.302C49.6934 42.5646 49.8159 41.9091 50.0609 41.2946C50.3059 40.6801 50.6325 40.1065 51.0817 39.6149C51.5308 39.1233 52.0208 38.7546 52.6333 38.5088C53.2458 38.2221 53.8583 38.0992 54.5933 38.0992C55.4508 38.0992 56.1858 38.263 56.8799 38.5908C57.5741 38.9185 58.2274 39.3691 58.8807 39.9836L61.2082 37.2798C60.8407 36.9111 60.4324 36.5424 59.9832 36.2147C59.534 35.887 59.0441 35.6412 58.5132 35.3954C57.9824 35.1905 57.4107 34.9857 56.7574 34.8628C56.1041 34.7399 55.4099 34.658 54.6341 34.658C53.3275 34.658 52.1842 34.9038 51.1225 35.3544C50.0609 35.805 49.1625 36.4195 48.3867 37.2389C47.6109 38.0172 47.0392 38.9595 46.5901 39.9836C46.1409 41.0488 45.9368 42.1549 45.9368 43.3429V43.3839C45.9368 44.5719 46.1409 45.719 46.5901 46.7432C47.0392 47.8083 47.6109 48.7096 48.3867 49.4879C49.1625 50.2663 50.0609 50.8808 51.1225 51.3315C52.1842 51.7821 53.3275 51.9869 54.5525 51.9869C55.3691 51.9869 56.1041 51.905 56.7574 51.7821C57.4107 51.6592 58.0232 51.4544 58.5541 51.1676C59.0849 50.9218 59.6157 50.594 60.0649 50.2253C60.3099 49.8976 60.759 49.4879 61.2082 49.0373ZM80.3587 43.3429V43.302C80.3587 42.1139 80.1545 40.9668 79.7054 39.9427C79.2562 38.8775 78.6437 37.9763 77.8679 37.1979C77.0921 36.4195 76.1529 35.805 75.0505 35.3544C73.9888 34.9038 72.8047 34.658 71.498 34.658C70.1914 34.658 69.0072 34.9038 67.9456 35.3544C66.8431 35.805 65.9039 36.4195 65.1281 37.2389C64.3523 38.0172 63.7398 38.9595 63.2906 39.9836C62.8415 41.0488 62.6373 42.1549 62.6373 43.3429V43.3839C62.6373 44.5719 62.8415 45.719 63.2906 46.7432C63.7398 47.8083 64.3523 48.7096 65.1281 49.4879C65.9039 50.2663 66.8431 50.8808 67.9456 51.3315C69.0072 51.7821 70.1914 52.0279 71.498 52.0279C72.8047 52.0279 73.9888 51.7821 75.0505 51.3315C76.1529 50.8808 77.0921 50.2663 77.8679 49.447C78.6437 48.6686 79.2562 47.7264 79.7054 46.7022C80.1545 45.678 80.3587 44.5719 80.3587 43.3429ZM76.5204 43.4249C76.5204 44.1623 76.3979 44.8177 76.1529 45.4322C75.9079 46.0467 75.5813 46.6203 75.1321 47.1119C74.683 47.6035 74.1521 47.9722 73.5396 48.218C72.9272 48.5047 72.233 48.6276 71.498 48.6276C70.763 48.6276 70.0689 48.5047 69.4564 48.218C68.8439 47.9312 68.3131 47.5625 67.8639 47.0709C67.4147 46.5793 67.0473 46.0467 66.8023 45.3913C66.5573 44.7358 66.4348 44.0803 66.4348 43.3429V43.302C66.4348 42.5646 66.5573 41.9091 66.8023 41.2946C67.0473 40.6801 67.3739 40.1065 67.8231 39.6149C68.2722 39.1233 68.8031 38.7546 69.4155 38.5088C70.028 38.2221 70.7222 38.0992 71.4572 38.0992C72.1922 38.0992 72.8455 38.2221 73.4988 38.5088C74.1113 38.7956 74.6421 39.1643 75.0913 39.6559C75.5404 40.1475 75.9079 40.6801 76.1529 41.3356C76.3979 41.991 76.5204 42.6465 76.5204 43.3839V43.4249ZM95.5893 38.304V34.9857H82.8903V51.7411H86.5653V45.2684H94.5276V41.9501H86.5653V38.345H95.5893V38.304ZM110.452 38.304V34.9857H97.7534V51.7411H101.428V45.2684H109.391V41.9501H101.428V38.345H110.452V38.304ZM125.315 51.7411V48.4638H116.251V44.9406H124.131V41.6633H116.251V38.263H125.193V34.9857H112.617V51.7411H125.315ZM140.505 51.7411V48.4638H131.44V44.9406H139.321V41.6633H131.44V38.263H140.383V34.9857H127.806V51.7411H140.505ZM60.6365 75.5428V58.7874H56.9616V65.424H50.1834V58.7874H46.5084V75.5428H50.1834V68.8243H56.9616V75.5428H60.6365ZM80.8895 67.1446V67.1037C80.8895 65.9156 80.6854 64.7686 80.2362 63.7444C79.787 62.7202 79.1746 61.778 78.3987 60.9996C77.6229 60.2212 76.6838 59.6067 75.5813 59.1561C74.5196 58.7055 73.3355 58.4597 72.0288 58.4597C70.7222 58.4597 69.538 58.7055 68.4764 59.1561C67.3739 59.6067 66.4348 60.2213 65.6589 61.0406C64.8831 61.819 64.2706 62.7612 63.8215 63.7854C63.3723 64.8095 63.1681 65.9566 63.1681 67.1446V67.1856C63.1681 68.3736 63.3723 69.5207 63.8215 70.5449C64.2706 71.5691 64.8831 72.5113 65.6589 73.2897C66.4348 74.068 67.3739 74.6825 68.4764 75.1332C69.538 75.5838 70.7222 75.8296 72.0288 75.8296C73.3355 75.8296 74.5196 75.5838 75.5813 75.1332C76.6838 74.6825 77.6229 74.068 78.3987 73.2487C79.1746 72.4703 79.787 71.5281 80.2362 70.5039C80.6854 69.4798 80.8895 68.3327 80.8895 67.1446ZM77.0513 67.1856C77.0513 67.923 76.9288 68.5785 76.6838 69.193C76.4388 69.8075 76.1121 70.381 75.6629 70.8726C75.2138 71.3642 74.683 71.7329 74.0705 71.9787C73.458 72.2655 72.7638 72.3884 72.0288 72.3884C71.2938 72.3884 70.5997 72.2655 69.9872 71.9787C69.3747 71.692 68.8439 71.3233 68.3947 70.8317C67.9456 70.3401 67.5781 69.8075 67.3331 69.152C67.0881 68.4966 66.9656 67.8411 66.9656 67.1037V67.0627C66.9656 66.3253 67.0881 65.6698 67.3331 65.0553C67.5781 64.4408 67.9047 63.8673 68.3539 63.3757C68.8031 62.8841 69.3339 62.5154 69.9464 62.2696C70.5589 61.9828 71.253 61.8599 71.988 61.8599C72.723 61.8599 73.3763 61.9828 74.0296 62.2696C74.6421 62.5564 75.173 62.9251 75.6221 63.4167C76.0713 63.9083 76.4388 64.4408 76.6838 65.0963C76.9288 65.7518 77.0513 66.4072 77.0513 67.1446V67.1856ZM97.6717 68.2098V58.7464H93.9968V68.3327C93.9968 69.6846 93.6701 70.6678 93.0577 71.3642C92.4043 72.0197 91.5468 72.3884 90.4035 72.3884C89.2602 72.3884 88.4027 72.0607 87.7494 71.3642C87.0961 70.6678 86.8103 69.6436 86.8103 68.2508V58.7874H83.1353V68.3736C83.1353 70.8317 83.7886 72.7161 85.0545 73.9451C86.3611 75.1741 88.1169 75.8296 90.3627 75.8296C91.4652 75.8296 92.486 75.6657 93.3843 75.379C94.2826 75.0512 95.0585 74.6006 95.7118 73.9861C96.3651 73.3716 96.8551 72.5523 97.1818 71.61C97.5084 70.6268 97.6717 69.5207 97.6717 68.2098ZM112.739 70.5859V70.5449C112.739 69.8075 112.617 69.193 112.412 68.6604C112.167 68.1278 111.841 67.6772 111.392 67.2675C110.942 66.8579 110.371 66.5301 109.717 66.2434C109.064 65.9566 108.288 65.7108 107.472 65.506C106.737 65.3011 106.165 65.1373 105.675 65.0144C105.226 64.8915 104.817 64.7276 104.572 64.5637C104.287 64.3999 104.123 64.236 104.001 64.0312C103.878 63.8263 103.837 63.5805 103.837 63.3347V63.2938C103.837 62.8841 104.001 62.5154 104.368 62.2696C104.736 61.9828 105.267 61.8599 105.961 61.8599C106.696 61.8599 107.39 62.0238 108.125 62.3106C108.86 62.5973 109.554 63.007 110.33 63.5396L112.249 60.7538C111.392 60.0574 110.452 59.5248 109.432 59.1561C108.411 58.7874 107.267 58.6235 106.042 58.6235C105.185 58.6235 104.409 58.7464 103.674 58.9922C102.98 59.238 102.327 59.5658 101.837 60.0164C101.306 60.4671 100.938 60.9996 100.653 61.6141C100.367 62.2286 100.244 62.9251 100.244 63.7034V63.7444C100.244 64.5637 100.367 65.2602 100.653 65.8337C100.898 66.4072 101.306 66.8579 101.755 67.2266C102.245 67.5953 102.817 67.923 103.511 68.1688C104.205 68.4146 104.981 68.6604 105.797 68.8653C106.492 69.0291 107.063 69.193 107.512 69.3569C107.962 69.5207 108.288 69.6846 108.533 69.8485C108.778 70.0123 108.942 70.1762 109.023 70.381C109.105 70.5449 109.146 70.7907 109.146 70.9955V71.0365C109.146 71.5281 108.942 71.9378 108.533 72.1836C108.125 72.4703 107.512 72.5932 106.737 72.5932C105.797 72.5932 104.899 72.4294 104.082 72.0607C103.266 71.692 102.49 71.2004 101.714 70.5859L99.5501 73.2077C100.571 74.109 101.673 74.8054 102.898 75.2151C104.123 75.6657 105.389 75.8706 106.655 75.8706C107.553 75.8706 108.37 75.7477 109.146 75.5428C109.881 75.297 110.534 74.9693 111.065 74.5187C111.596 74.068 112.004 73.5355 112.331 72.88C112.576 72.1426 112.739 71.4052 112.739 70.5859ZM127.847 75.5428V72.2655H118.782V68.7424H126.663V65.465H118.782V62.0648H127.725V58.7874H115.148V75.5428H127.847Z" fill="#181818"/>
<path d="M32.5028 100L34.0545 81.9336H106.492L104.94 100H32.5028Z" fill="#ED1C24"/>
<path d="M51.8983 90.2088C51.8983 89.7992 51.8166 89.4305 51.6941 89.1027C51.5716 88.775 51.3675 88.4882 51.1225 88.2424C50.8775 87.9966 50.5508 87.8328 50.1833 87.7099C49.8158 87.587 49.4075 87.505 48.9583 87.505H45.8142V95.2887H47.5292V92.9536H48.8358C49.285 92.9536 49.6933 92.9127 50.0608 92.7898C50.4283 92.6669 50.755 92.503 51.0408 92.2572C51.3266 92.0114 51.5308 91.7246 51.6941 91.3969C51.8166 91.0282 51.8983 90.6595 51.8983 90.2088ZM50.1833 90.2088C50.1833 90.5366 50.0608 90.8233 49.8158 91.0282C49.5708 91.274 49.2442 91.3559 48.8358 91.3559H47.4884V88.9798H48.795C49.2033 88.9798 49.5708 89.0618 49.8158 89.2666C50.0608 89.4714 50.1833 89.8401 50.1833 90.2088ZM63.2498 95.2478L61.3715 92.462C61.8615 92.2572 62.2698 91.9704 62.5556 91.6017C62.8414 91.192 63.0048 90.7004 63.0048 90.045V90.004C63.0048 89.1847 62.7598 88.5702 62.2289 88.1195C61.6981 87.6689 61.004 87.4231 60.0648 87.4231H56.5124V95.2068H58.2273V92.7078H59.5748L61.249 95.2068H63.2498V95.2478ZM61.2898 90.1679C61.2898 90.4956 61.1673 90.7824 60.9631 90.9872C60.7181 91.192 60.4323 91.274 59.9831 91.274H58.2682V89.0618H59.9423C60.3506 89.0618 60.6773 89.1437 60.9223 89.3485C61.1673 89.5124 61.2898 89.7582 61.2898 90.1679ZM69.7422 87.505H68.0272V95.2887H69.7422V87.505ZM82.8086 95.2478V87.4641H80.9711L78.9295 90.7414L76.8879 87.4641H75.0504V95.2478H76.7245V90.2088L78.8887 93.4862H78.9295L81.0936 90.1679V95.2478H82.8086ZM93.9559 95.2478V93.732H89.7502V92.0933H93.3843V90.5775H89.7502V89.0208H93.9151V87.505H88.076V95.2887H93.9559V95.2478Z" fill="white"/>
<path d="M17.885 23.7608C15.5576 21.9172 14.2101 19.0905 14.2101 16.1409C14.1693 9.34044 22.7033 6.71856 17.8442 0C20.6617 0.655469 22.8258 2.82671 23.4791 5.61245C24.9083 11.7575 17.4767 14.0107 17.885 23.7608Z" fill="#ED1C24"/>
</g>
<defs>
<clipPath id="clip0_602_661">
<rect width="153" height="100" fill="white"/>
</clipPath>
</defs>
</svg>
