<svg width="303" height="114" viewBox="0 0 303 114" fill="none" xmlns="http://www.w3.org/2000/svg">
<path d="M272.447 17.7564C285.057 23.4342 294.247 30.2832 298.962 37.9736L298.536 38.235C300.635 41.6596 301.823 45.2395 302.018 48.9486C302.212 52.6578 301.405 56.3422 299.675 59.9676L300.126 60.1829C296.241 68.3241 287.817 76.0962 275.869 83.061L275.617 82.629C269.524 86.1809 262.505 89.5253 254.694 92.6021L254.877 93.0673C245.234 96.8661 234.395 100.254 222.616 103.122L222.498 102.637C215.249 104.401 207.643 105.969 199.74 107.314L199.823 107.806C189.133 109.625 177.9 111.036 166.271 111.976L166.23 111.477C162.404 111.786 158.535 112.044 154.629 112.249C150.722 112.454 146.847 112.602 143.01 112.694L143.022 113.194C131.358 113.475 120.039 113.246 109.217 112.555L109.249 112.056C101.248 111.545 93.5194 110.781 86.1263 109.783L86.0594 110.279C74.0454 108.658 62.9119 106.421 52.9237 103.651L53.0573 103.169C44.9674 100.926 37.6371 98.3336 31.2063 95.4381L31.0011 95.894C18.3909 90.2162 9.20048 83.3672 4.48556 75.6768L4.91182 75.4154C2.81224 71.9908 1.62451 68.4109 1.43013 64.7018C1.23574 60.9927 2.04275 57.3082 3.77286 53.6829L3.32161 53.4675C7.20684 45.3264 15.631 37.5542 27.5786 30.5894L27.8304 31.0214C33.9233 27.4696 40.9424 24.1252 48.7535 21.0483L48.5703 20.5831C58.2142 16.7843 69.053 13.396 80.8317 10.5281L80.95 11.0139C88.1984 9.24912 95.8043 7.6815 103.708 6.33692L103.624 5.844C114.315 4.02537 125.548 2.6145 137.177 1.67487L137.217 2.17325C141.043 1.8641 144.913 1.60601 148.819 1.40127C152.726 1.19653 156.601 1.04878 160.438 0.956298L160.426 0.456444C172.09 0.175373 183.409 0.404314 194.231 1.09551L194.199 1.5945C202.2 2.10552 209.928 2.86952 217.321 3.86699L217.388 3.37148C229.402 4.9924 240.536 7.2292 250.524 9.99915L250.39 10.481C258.48 12.7245 265.811 15.3169 272.241 18.2123L272.447 17.7564Z" stroke="white" stroke-dasharray="22 32"/>
</svg>
