<svg width="50" height="20" viewBox="0 0 50 20" fill="none" xmlns="http://www.w3.org/2000/svg">
<path d="M48.708 15.5847C48.1745 17.5967 43.4867 18.6773 37.4078 17.1123C34.6066 16.3857 32.1102 15.2307 30.3951 13.8707C28.8326 12.6225 28.0894 11.337 28.3562 10.3309C28.6229 9.32491 29.9187 8.56108 31.9196 8.24436C32.6247 8.13258 33.387 8.0767 34.2064 8.0767C35.9024 8.0767 37.7699 8.31889 39.6564 8.82191C42.4576 9.54848 44.954 10.7035 46.6691 12.0635C48.2317 13.2931 48.9748 14.5786 48.708 15.5847ZM47.4503 11.0948C45.5829 9.62299 42.9341 8.39341 39.9613 7.61094C36.9886 6.84711 34.0539 6.64217 31.691 7.01478C29.1565 7.42464 27.5367 8.48656 27.1175 9.9956C26.7173 11.5046 27.5749 13.2186 29.5758 14.8022C31.4432 16.274 34.092 17.5036 37.0648 18.286C39.1038 18.8077 41.0666 19.0685 42.8197 19.0685C46.5547 19.0685 49.3369 17.9321 49.8895 15.9014C50.3278 14.3737 49.4512 12.6783 47.4503 11.0948ZM25.4215 19.1057C25.4215 19.5901 25.0213 20 24.5068 20C24.0114 20 23.5921 19.6088 23.5921 19.1057C23.5921 18.6214 23.9923 18.2115 24.5068 18.2115C25.0023 18.2115 25.4215 18.6214 25.4215 19.1057ZM10.1766 2.93477C10.1766 2.28271 10.7293 1.74244 11.3962 1.74244C12.0632 1.74244 12.6158 2.28271 12.6158 2.93477C12.6158 3.58682 12.0632 4.1271 11.3962 4.1271C10.7102 4.1271 10.1766 3.60545 10.1766 2.93477ZM41.1047 1.57477C41.5239 1.55614 41.9431 1.68655 42.2481 1.966C42.572 2.24545 42.7435 2.63669 42.7816 3.04656C42.8007 3.45642 42.6673 3.86628 42.3814 4.16437C42.0956 4.48108 41.6954 4.64875 41.2762 4.68601C41.2381 4.68601 41.219 4.68601 41.1809 4.68601C40.7807 4.68601 40.4187 4.53696 40.1138 4.29477C39.7898 4.01532 39.6183 3.62408 39.5802 3.21422C39.5611 2.80436 39.6945 2.39449 39.9804 2.09641C40.2853 1.7797 40.6664 1.5934 41.1047 1.57477ZM40.2472 10.834C40.7617 11.2811 41.0666 11.8959 41.0856 12.5666C41.1237 13.2372 40.8951 13.8707 40.4377 14.3737C39.9804 14.8767 39.3515 15.1748 38.6655 15.1934C38.6274 15.1934 38.5702 15.1934 38.5321 15.1934C37.9033 15.1934 37.2935 14.9698 36.8171 14.5414C36.3026 14.0942 35.9977 13.4794 35.9786 12.8088C35.9024 11.4301 36.9886 10.2378 38.3987 10.1633C39.0657 10.1446 39.7326 10.3682 40.2472 10.834ZM25.917 2.80435C26.0123 3.58682 25.8026 4.36929 25.2881 4.98409C24.7927 5.59888 24.0685 6.00874 23.2682 6.1019C23.1348 6.12053 23.0205 6.12053 22.9061 6.12053C21.9914 6.12053 21.1339 5.71066 20.5813 5.03997L18.1802 6.26957C18.0849 6.32546 17.9896 6.34408 17.8944 6.34408C17.6657 6.34408 17.4561 6.23231 17.3417 6.02738C17.1893 5.7293 17.3036 5.35669 17.6085 5.20765L20.0096 3.97806C19.9715 3.82902 19.9334 3.67998 19.9143 3.53094C19.819 2.74847 20.0286 1.966 20.5432 1.3512C21.0386 0.736409 21.7627 0.326546 22.5631 0.233395C23.3635 0.140244 24.1638 0.345174 24.7927 0.848188C24.9642 0.978599 25.1166 1.12764 25.25 1.29532L27.6511 0.0657304C27.956 -0.0833109 28.3371 0.0284633 28.4895 0.326546C28.642 0.624628 28.5276 0.997236 28.2228 1.14628L25.8217 2.37586C25.8407 2.50627 25.8979 2.65531 25.917 2.80435ZM17.1893 14.2805C17.1702 13.852 17.1131 13.4235 16.9987 12.9951C16.8844 12.5666 16.7129 12.1753 16.4842 11.8027C20.0286 11.2066 21.8009 11.3556 22.2392 11.5792C21.9533 12.0636 20.3145 13.1068 17.1893 14.2805ZM15.398 16.423C14.8454 17.3731 13.9497 18.0625 12.8826 18.3419C11.663 18.6773 10.4053 18.4351 9.43347 17.783C10.4244 17.5594 11.4725 17.3173 12.5206 17.0378C13.5686 16.7583 14.5977 16.4416 15.5695 16.1249C15.4933 16.2367 15.4552 16.3299 15.398 16.423ZM1.27747 17.2427C1.5252 16.8701 2.76384 15.9014 6.32733 14.5414C6.34638 14.9698 6.40355 15.3983 6.51789 15.8268C6.63223 16.2553 6.80373 16.6466 7.03241 17.0192C3.71665 17.5781 1.77292 17.5035 1.27747 17.2427ZM10.6531 10.48C11.0151 10.3868 11.3962 10.3309 11.7774 10.3309C12.4824 10.3309 13.1875 10.5173 13.8354 10.8712C14.8073 11.4115 15.5124 12.2871 15.7982 13.3304C15.9316 13.7961 15.9697 14.2619 15.9316 14.7277C14.8263 15.1003 13.5877 15.4915 12.1775 15.8641C10.7674 16.2367 9.5097 16.5348 8.36633 16.7583C8.09955 16.3857 7.87088 15.9573 7.73748 15.4915C7.10863 13.3304 8.42349 11.0761 10.6531 10.48ZM23.4778 11.2438C23.1157 9.99561 20.486 9.82792 15.6457 10.7222C15.2837 10.3682 14.8835 10.0515 14.4262 9.79066C13.1685 9.08272 11.7011 8.91506 10.31 9.28766C8.3282 9.82793 6.91806 11.3556 6.47977 13.1814C1.84915 14.8394 -0.323245 16.3112 0.0388206 17.5594C0.248438 18.286 1.16313 18.64 2.89723 18.64C3.33552 18.64 3.83098 18.6214 4.36455 18.5655C5.41264 18.4723 6.59412 18.3046 7.87088 18.0811C8.88085 19.1057 10.291 19.7019 11.7774 19.7019C12.2538 19.7019 12.7302 19.646 13.2256 19.5156C14.6167 19.143 15.7791 18.2488 16.5033 17.0192C16.77 16.5721 16.9415 16.1063 17.0749 15.6219C18.2945 15.1748 19.3998 14.7277 20.3336 14.2805C22.7346 13.1255 23.7446 12.1567 23.4778 11.2438Z" fill="#ffffff"/>
</svg>
