<svg width="11" height="32" viewBox="0 0 11 32" fill="none" xmlns="http://www.w3.org/2000/svg">
<path d="M5.91169 21.7859C4.99168 23.2058 4.59739 25.0151 4.83835 26.7098C4.99168 27.8319 5.40788 28.8167 5.75836 29.7099L5.91169 30.0763C6.04312 30.3969 6.17455 30.6717 6.26217 31.061C6.3717 31.4504 6.15265 31.8626 5.75836 31.9771C5.69264 32 5.62693 32 5.56121 32C5.25454 32 4.96978 31.7939 4.88216 31.4504C4.81644 31.1985 4.72882 30.9923 4.59739 30.6946L4.44406 30.3282C4.04977 29.3663 3.58976 28.29 3.41452 26.9617C3.12976 24.8776 3.58976 22.702 4.72882 20.9615C4.99168 20.5722 5.32026 20.137 5.64883 19.7019C6.98504 17.9843 8.62791 15.8545 7.94886 12.8544C7.86124 12.4421 8.10219 12.0528 8.47458 11.9612C8.84696 11.8696 9.24125 12.1215 9.32887 12.5108C10.1613 16.2209 8.18981 18.7629 6.74408 20.6409C6.43741 21.0302 6.15265 21.4424 5.91169 21.7859ZM0.0192486 12.7857C0.0630586 12.5795 0.0849635 12.3963 0.106869 12.1215L0.128774 11.778C0.216394 10.9077 0.325919 9.90007 0.720209 8.84661C1.33355 7.1748 2.56023 5.75491 4.09358 4.97626C4.44406 4.79305 4.83835 4.63274 5.27645 4.44952C6.98504 3.73958 8.91268 2.96093 9.59173 0.533372C9.70126 0.144047 10.0955 -0.0849704 10.4898 0.029537C10.8622 0.144044 11.0813 0.556272 10.9717 0.968499C10.0955 4.0831 7.62028 5.11367 5.80217 5.86941C5.40788 6.02972 5.03549 6.19004 4.72882 6.35035C3.52405 6.96869 2.53832 8.09086 2.05641 9.41914C1.72784 10.2894 1.64022 11.1826 1.5526 11.9612L1.53069 12.2818C1.50879 12.5795 1.48688 12.8544 1.39926 13.175C1.31164 13.5185 1.02688 13.7475 0.698303 13.7475C0.632588 13.7475 0.588778 13.7475 0.523063 13.7246C0.150678 13.6101 -0.0683714 13.1979 0.0192486 12.7857Z" fill="#ffffff"/>
</svg>
