<svg width="31" height="26" viewBox="0 0 31 26" fill="none" xmlns="http://www.w3.org/2000/svg">
<path d="M30.7537 5.71665C30.8974 5.69631 31 5.59459 31 5.45218C31 5.33012 30.8974 5.20806 30.7537 5.18771C29.8093 5.08599 26.6272 4.61808 26.4834 4.47567C26.3397 4.33327 25.8675 1.17995 25.7649 0.244127C25.7444 0.101719 25.6417 0 25.498 0C25.3543 0 25.2517 0.101719 25.2311 0.244127C25.1285 1.17995 24.6563 4.33327 24.5126 4.47567C24.3689 4.61808 21.1867 5.08599 20.2424 5.18771C20.0987 5.20806 19.996 5.30977 19.996 5.45218C19.996 5.59459 20.0987 5.69631 20.2424 5.71665C21.1867 5.81837 24.3689 6.28629 24.5126 6.42869C24.6563 6.5711 25.1285 9.72442 25.2311 10.6602C25.2517 10.8026 25.3543 10.9044 25.498 10.9044C25.6417 10.9044 25.7444 10.8026 25.7649 10.6602C25.8675 9.72442 26.3397 6.5711 26.4834 6.42869C26.6272 6.28629 29.8093 5.81837 30.7537 5.71665Z" fill="#ED1C24"/>
<path d="M0.472195 13.0405C0.205308 13.0608 0 13.2846 0 13.5491C0 13.8136 0.205308 14.0373 0.472195 14.0577C2.29935 14.2204 8.43775 15.1563 8.70464 15.4207C8.97153 15.6852 9.89536 21.7884 10.0801 23.5787C10.1007 23.8431 10.3265 24.0466 10.5934 24.0466C10.8603 24.0466 11.0861 23.8431 11.1066 23.5787C11.2709 21.7681 12.2152 15.6852 12.4821 15.4207C12.749 15.1563 18.908 14.2408 20.7146 14.0577C20.9815 14.0373 21.1867 13.8136 21.1867 13.5491C21.1867 13.2846 20.9815 13.0608 20.7146 13.0405C18.8874 12.8777 12.749 11.9419 12.4821 11.6774C12.2152 11.413 11.2914 5.30977 11.1066 3.51951C11.0861 3.25503 10.8603 3.0516 10.5934 3.0516C10.3265 3.0516 10.1007 3.25503 10.0801 3.51951C9.91589 5.33012 8.97153 11.413 8.70464 11.6774C8.43775 11.9419 2.27882 12.8574 0.472195 13.0405Z" fill="#ED1C24"/>
<path d="M19.4007 25.4503C20.2219 26.203 21.5358 26.1827 22.3364 25.3893C23.1371 24.5959 23.1166 23.3142 22.2954 22.5411C21.4742 21.768 20.1603 21.8087 19.3596 22.6022C18.559 23.3956 18.5795 24.6772 19.4007 25.4503Z" fill="#ED1C24"/>
</svg>
