<svg width="118" height="118" viewBox="0 0 118 118" xmlns="http://www.w3.org/2000/svg">
	<path stroke="#181818" fill="#ED1C24" stroke-width="2" d="M55.5753 2.06766C57.7025 0.874407 60.2975 0.874406 62.4247 2.06766L70.7098 6.71522C72.0217 7.45117 73.4973 7.84654 75.0014 7.86517L84.5003 7.98282C86.9392 8.01303 89.1864 9.31049 90.432 11.4075L95.2833 19.5749C96.0516 20.8683 97.1317 21.9484 98.4251 22.7167L106.593 27.568C108.69 28.8136 109.987 31.0608 110.017 33.4997L110.135 42.9986C110.153 44.5027 110.549 45.9783 111.285 47.2902L115.932 55.5753C117.126 57.7025 117.126 60.2975 115.932 62.4247L111.285 70.7098C110.549 72.0217 110.153 73.4973 110.135 75.0014L110.017 84.5003C109.987 86.9392 108.69 89.1864 106.593 90.432L98.4251 95.2833C97.1317 96.0516 96.0516 97.1317 95.2833 98.4251L90.432 106.593C89.1864 108.69 86.9392 109.987 84.5003 110.017L75.0014 110.135C73.4973 110.153 72.0217 110.549 70.7098 111.285L62.4247 115.932C60.2975 117.126 57.7025 117.126 55.5753 115.932L47.2902 111.285C45.9783 110.549 44.5027 110.153 42.9986 110.135L33.4997 110.017C31.0608 109.987 28.8136 108.69 27.568 106.593L22.7167 98.4251C21.9484 97.1317 20.8683 96.0516 19.5749 95.2833L11.4075 90.432C9.31049 89.1864 8.01303 86.9392 7.98282 84.5003L7.86517 75.0014C7.84654 73.4973 7.45117 72.0217 6.71522 70.7098L2.06766 62.4247C0.874407 60.2975 0.874406 57.7025 2.06766 55.5753L6.71522 47.2902C7.45117 45.9783 7.84654 44.5027 7.86517 42.9986L7.98282 33.4997C8.01303 31.0608 9.31049 28.8136 11.4075 27.568L19.5749 22.7167C20.8683 21.9484 21.9484 20.8683 22.7167 19.5749L27.568 11.4075C28.8136 9.31049 31.0608 8.01303 33.4997 7.98282L42.9986 7.86517C44.5027 7.84654 45.9783 7.45117 47.2902 6.71522L55.5753 2.06766Z"/>
</svg>